
<svg xmlns="http://www.w3.org/2000/svg" version="1.1" xmlns:xlink="http://www.w3.org/1999/xlink" preserveAspectRatio="none" x="0px" y="0px" width="1095px" height="277px" viewBox="0 0 1095 277">
<defs>
<g id="Layer0_0_FILL">
<path fill="#FFFFFF" stroke="none" d="
M 64.25 140.8
Q 47.05 137.3 47.05 128.05 47.05 114.7 68.35 114.7 85.9 114.7 89.65 128.05
L 113.4 123.25
Q 105.1 95.75 67.65 95.75 45.15 95.75 33.8 106.75 22.45 117.65 22.45 133.3 22.45 161.4 58.25 168.35
L 79.8 172.45
Q 85.1 173.5 88.95 176.5 92.8 179.55 92.8 184.25 92.8 198.9 68 198.9 48.45 198.9 42.7 184.5
L 17.65 189.3
Q 21.85 204.25 35.8 211.65 49.7 218.9 67.85 218.9 88.85 218.9 104.05 209.3 119.25 199.6 119.25 180.05 119.25 152.15 89.65 146.1
L 64.25 140.8
M 238.25 98.2
L 211.55 98.2 211.55 155
Q 211.55 180.4 202.55 188.25 193.5 195.95 184.85 195.95 179.45 195.95 173.85 192 168.2 188 168.2 175.25
L 168.2 98.2 140.95 98.2 140.95 180.95
Q 140.95 198.9 150.4 208.95 159.9 218.9 176.05 218.9 203.35 218.9 213.4 190.95
L 213.4 216.45 238.25 216.45 238.25 98.2
M 368.85 132.95
Q 372.15 114.6 396.5 114.6 421.55 114.6 421.55 132.95
L 421.55 141.85
Q 416.75 141.75 413.95 141.75 342.4 141.75 342.4 182.5 342.4 198.2 353.15 208.6 363.8 218.9 381.5 218.9 410.9 218.9 421.55 192.55 422.25 205.7 425.65 216.45
L 451.05 216.45
Q 447.55 204.15 447.55 192.55
L 447.55 139.2
Q 447.55 123.95 445.3 117.65 442.95 111.2 437 105.8 431.05 100.3 422.35 98.1 413.7 95.75 400 95.75 374.7 95.75 361.35 105.35 348 114.8 346.15 129.55
L 368.85 132.95
M 375.05 193.6
Q 369.8 188.35 369.8 180.95 369.8 156.25 421.55 156.25
L 421.55 167.15
Q 421.55 179.45 413.8 189.15 405.95 198.75 390.75 198.75 380.2 198.75 375.05 193.6
M 330.65 94.8
Q 328.4 94.7 327.15 94.7 317.65 94.7 308.65 102.3 299.6 109.9 294.45 126.4
L 294.45 98.2 270.35 98.2 270.35 216.45 297.05 216.45 297.05 161.65
Q 297.05 149.5 303.7 136.5 310.25 123.5 330.65 123.5
L 330.65 94.8
M 508.3 98.2
L 508.3 65.4 486.4 67.4 483.95 98.2 467.65 98.2 467.65 118.9 482.4 118.9 482.4 180.15
Q 482.4 195.6 486.05 203.1 489.55 210.5 497.3 214.8 505 219.05 515.8 219.05 522.35 219.05 534.3 216.45
L 534.3 195.6
Q 530.75 195.85 527.6 195.85 516.35 195.85 512.4 191.85 508.3 187.75 508.3 176.65
L 508.3 118.9 532.05 118.9 532.05 98.2 508.3 98.2 Z"/>

<path fill="#FFA31A" stroke="none" d="
M 1043.85 32.35
Q 1022.5 11 992.25 11
L 636.2 11
Q 606 11 584.5 32.35 563.15 53.85 563.15 84.05
L 563.15 192.85
Q 563.15 223.05 584.5 244.45 606 265.9 636.2 265.9
L 992.25 265.9
Q 1022.5 265.9 1043.85 244.45 1065.35 223.05 1065.35 192.85
L 1065.35 84.05
Q 1065.35 53.85 1043.85 32.35
M 991.8 109.2
Q 1004.55 125.7 1004.55 155 1004.55 181.45 992.05 200.2 979.4 218.9 955.85 218.9 932.2 218.9 919.1 197
L 911.95 216.45 899.9 216.45 899.9 56.65 926.6 56.65 926.6 114.35
Q 934.2 101.1 941.8 96.9 949.4 92.7 959.6 92.7 979.05 92.7 991.8 109.2
M 841.1 98.2
L 867.8 98.2 867.8 216.45 842.95 216.45 842.95 190.95
Q 832.9 218.9 805.6 218.9 789.45 218.9 779.95 208.95 770.5 198.9 770.5 180.95
L 770.5 98.2 797.75 98.2 797.75 175.25
Q 797.75 188 803.4 192 809 195.95 814.4 195.95 823.05 195.95 832.1 188.25 841.1 180.4 841.1 155
L 841.1 98.2
M 708.05 122.3
L 708.05 56.65 736.85 56.65 736.85 216.45 708.05 216.45 708.05 147 647.05 147 647.05 216.45 618.25 216.45 618.25 56.65 647.05 56.65 647.05 122.3 708.05 122.3
M 951.85 115.75
Q 940.85 115.75 933.75 124.3 926.6 132.85 926.6 148.45
L 926.6 166
Q 926.6 181.8 933.5 189.4 940.3 196.9 951.15 196.9 961.7 196.9 968.85 188.25 976 179.55 976.45 154.3 976.45 135.8 970 125.85 963.6 115.75 951.85 115.75 Z"/>

<path fill="#000000" stroke="none" d="
M 708.05 56.65
L 708.05 122.3 647.05 122.3 647.05 56.65 618.25 56.65 618.25 216.45 647.05 216.45 647.05 147 708.05 147 708.05 216.45 736.85 216.45 736.85 56.65 708.05 56.65
M 867.8 98.2
L 841.1 98.2 841.1 155
Q 841.1 180.4 832.1 188.25 823.05 195.95 814.4 195.95 809 195.95 803.4 192 797.75 188 797.75 175.25
L 797.75 98.2 770.5 98.2 770.5 180.95
Q 770.5 198.9 779.95 208.95 789.45 218.9 805.6 218.9 832.9 218.9 842.95 190.95
L 842.95 216.45 867.8 216.45 867.8 98.2
M 1004.55 155
Q 1004.55 125.7 991.8 109.2 979.05 92.7 959.6 92.7 949.4 92.7 941.8 96.9 934.2 101.1 926.6 114.35
L 926.6 56.65 899.9 56.65 899.9 216.45 911.95 216.45 919.1 197
Q 932.2 218.9 955.85 218.9 979.4 218.9 992.05 200.2 1004.55 181.45 1004.55 155
M 933.75 124.3
Q 940.85 115.75 951.85 115.75 963.6 115.75 970 125.85 976.45 135.8 976.45 154.3 976 179.55 968.85 188.25 961.7 196.9 951.15 196.9 940.3 196.9 933.5 189.4 926.6 181.8 926.6 166
L 926.6 148.45
Q 926.6 132.85 933.75 124.3 Z"/>
</g>
</defs>

<g transform="matrix( 1, 0, 0, 1, 0,0) ">
<use xlink:href="#Layer0_0_FILL"/>
</g>
</svg>
